<?xml version="1.0" standalone="no"?><!DOCTYPE svg PUBLIC "-//W3C//DTD SVG 1.1//EN" "http://www.w3.org/Graphics/SVG/1.1/DTD/svg11.dtd"><svg class="svg-icon" width="16" height="16" viewBox="0 0 1024 1024" version="1.1" xmlns="http://www.w3.org/2000/svg"><path d="M247.808 555.52H121.344v51.712h126.464v-51.712z m0-293.376H209.92V126.464c0-6.656 4.608-13.312 9.216-13.312h438.784V61.44H219.136c-34.304 1.024-60.416 30.208-59.904 65.024v136.192h-37.888v51.712h126.464V262.144z m0 146.944H121.344V460.8h126.464V409.088z m624.64 67.072h-50.688v414.72c0 6.656-4.608 13.312-9.216 13.312H219.136c-5.12 0-9.216-5.632-9.216-13.312v-136.704h37.888v-51.712H121.344v51.712h37.888v136.192c-1.024 34.816 25.6 64 59.392 65.024h593.92c33.792-1.024 60.416-30.208 59.392-65.024V476.16z m12.288-253.952l-72.704-74.752c-12.288-12.288-28.672-19.456-45.568-18.944-16.896 0.512-33.792 7.68-45.568 20.992L402.944 504.32c-2.56 3.072-4.608 5.632-5.12 9.216l-62.976 194.56c-3.072 9.216-0.512 19.456 6.144 26.112 6.656 6.656 16.384 9.216 25.6 6.144l188.928-65.024c4.096-1.536 7.68-4.096 10.752-6.656L887.296 312.32c22.528-25.6 22.016-65.024-2.56-90.112z m-486.4 453.12l34.304-105.472L500.736 640l-102.4 35.328z m148.992-60.928l-90.624-92.672 175.104-194.56L721.92 420.352 547.328 614.4zM849.92 276.992l-94.208 104.448-90.624-93.184L758.272 184.32c2.56-2.56 5.12-4.096 8.704-4.096s6.656 1.024 9.216 4.096l72.704 75.264c5.12 4.096 5.12 12.288 1.024 17.408z" /></svg>