<?xml version="1.0" standalone="no"?><!DOCTYPE svg PUBLIC "-//W3C//DTD SVG 1.1//EN" "http://www.w3.org/Graphics/SVG/1.1/DTD/svg11.dtd"><svg fill="currentColor" class="svg-icon" width="16" height="16" viewBox="0 0 1024 1024" version="1.1" xmlns="http://www.w3.org/2000/svg"><path d="M699.854407 590.259004l-389.655139 0c-15.424665 0-27.961183 12.546308-27.961183 27.975868 0 15.414875 12.536518 27.956288 27.961183 27.956288l389.655139 0c15.439351 0 27.975868-12.541413 27.975868-27.956288C727.830275 602.810207 715.293758 590.259004 699.854407 590.259004z"  /><path d="M699.854407 783.779565l-389.655139 0c-15.424665 0-27.961183 12.541413-27.961183 27.956288 0 15.405084 12.536518 27.951393 27.961183 27.951393l389.655139 0c15.439351 0 27.975868-12.546308 27.975868-27.951393C727.830275 796.316082 715.293758 783.779565 699.854407 783.779565z"  /><path d="M282.238085 424.719207c0 15.414875 12.536518 27.961183 27.961183 27.961183l389.655139 0c15.439351 0 27.975868-12.546308 27.975868-27.961183 0-15.41977-12.536518-27.951393-27.975868-27.951393l-389.655139 0C294.774603 396.762919 282.238085 409.299437 282.238085 424.719207z"  /><path d="M181.901886 1023.001386c-32.875929 0-59.623111-26.737392-59.623111-59.61332L122.278776 224.825141c0-32.836767 26.747182-59.588844 59.623111-59.588844l196.379337 0L378.281223 59.608425c0-32.871033 26.747182-59.608425 59.598635-59.608425l134.284168 0c32.861243 0 59.598635 26.737392 59.598635 59.608425l0 105.627872 196.389127 0c32.875929 0 59.623111 26.747182 59.623111 59.588844l0 738.562925c0 32.875929-26.747182 59.61332-59.623111 59.61332L181.901886 1023.001386zM174.358437 970.946201l661.351486 0L835.709923 217.301273l-163.190118 0-2.68255 17.544272c-4.919641 31.960533-32.983622 56.064326-65.286817 56.064326L405.503236 290.90987c-32.312985 0-60.376966-24.098898-65.277026-56.064326l-2.677655-17.544272L174.358437 217.301273 174.358437 970.946201zM426.758043 243.656841l156.542484 0L583.300527 52.055185 426.758043 52.055185 426.758043 243.656841z"  /></svg>