<?xml version="1.0" standalone="no"?><!DOCTYPE svg PUBLIC "-//W3C//DTD SVG 1.1//EN" "http://www.w3.org/Graphics/SVG/1.1/DTD/svg11.dtd"><svg class="svg-icon" width="16" height="16" viewBox="0 0 1024 1024" version="1.1" xmlns="http://www.w3.org/2000/svg"><path d="M916.329412 686.200471C873.321412 655.299765 813.146353 624.218353 813.146353 543.683765L813.146353 479.713882C813.146353 373.338353 752.549647 280.636235 662.678588 230.821647L662.678588 143.902118C662.678588 64.451765 595.275294 0 512.090353 0 428.905412 0 361.502118 64.451765 361.502118 143.902118L361.502118 230.640941C271.450353 280.395294 210.733176 373.217882 210.733176 479.713882L210.733176 543.683765C210.733176 624.519529 150.076235 655.540706 107.008 686.561882 99.418353 691.139765 92.431059 696.741647 86.407529 703.126588 86.226824 703.247059 86.046118 703.427765 85.805176 703.608471 85.805176 703.608471 85.865412 703.608471 85.925647 703.608471 69.963294 720.594824 60.205176 743.002353 60.205176 767.578353L60.205176 895.397647C60.205176 913.046588 75.143529 927.382588 93.696 927.382588L393.065412 927.382588C400.896 981.895529 449.686588 1024 509.018353 1024 568.229647 1024 617.020235 981.895529 624.850824 927.382588L930.243765 927.382588C948.736 927.382588 963.734588 913.046588 963.734588 895.397647L963.734588 766.373647C963.252706 732.461176 944.399059 702.885647 916.329412 686.200471L916.329412 686.200471ZM428.423529 143.902118C428.423529 99.809882 465.950118 63.969882 512.090353 63.969882 558.230588 63.969882 595.757176 99.809882 595.757176 143.902118L595.757176 203.414588C569.133176 196.065882 541.063529 191.909647 511.909647 191.909647 482.936471 191.909647 454.987294 196.065882 428.423529 203.354353L428.423529 143.902118 428.423529 143.902118ZM509.018353 992.015059C468.359529 992.015059 434.386824 964.126118 426.917647 927.382588L590.998588 927.382588C583.529412 964.126118 549.616941 992.015059 509.018353 992.015059L509.018353 992.015059ZM896.813176 863.412706 127.126588 863.412706 127.126588 767.578353C127.126588 757.699765 131.704471 750.652235 135.619765 746.435765L135.920941 746.134588C137.968941 743.966118 140.318118 742.098824 142.848 740.592941L145.136941 739.147294 147.305412 737.641412C151.883294 734.268235 156.762353 730.955294 161.701647 727.582118 205.071059 697.765647 277.654588 647.890824 277.654588 543.683765L277.654588 479.713882C277.654588 356.291765 382.765176 255.879529 511.909647 255.879529 641.114353 255.879529 746.224941 356.291765 746.224941 479.713882L746.224941 543.683765C746.224941 647.890824 818.748235 697.765647 862.117647 727.582118 866.936471 730.834824 871.634824 734.087529 876.152471 737.340235L878.441412 738.966588 880.911059 740.472471C890.608941 746.255059 896.512 756.073412 896.813176 766.855529L896.813176 863.412706 896.813176 863.412706Z" /></svg>