<?xml version="1.0" standalone="no"?><!DOCTYPE svg PUBLIC "-//W3C//DTD SVG 1.1//EN" "http://www.w3.org/Graphics/SVG/1.1/DTD/svg11.dtd"><svg fill="currentColor" class="svg-icon" width="16" height="16" viewBox="0 0 1024 1024" version="1.1" xmlns="http://www.w3.org/2000/svg"><path d="M635.733333 768h-256c-140.8-55.466667-230.4-187.733333-230.4-337.066667 0-200.533333 162.133333-362.666667 362.666667-362.666666s362.666667 162.133333 362.666667 362.666666c0 149.333333-93.866667 285.866667-230.4 337.066667h-8.533334z m-243.2-42.666667h238.933334c119.466667-46.933333 200.533333-166.4 200.533333-298.666666 0-174.933333-145.066667-320-320-320S192 251.733333 192 426.666667c0 128 81.066667 247.466667 200.533333 298.666666zM597.333333 960h-170.666666c-21.333333 0-42.666667-17.066667-42.666667-38.4l-12.8-174.933333 42.666667-4.266667 12.8 174.933333h174.933333l12.8-174.933333 42.666667 4.266667-17.066667 174.933333c0 21.333333-17.066667 38.4-42.666667 38.4zM640 512c-4.266667 0-8.533333 0-8.533333-4.266667L512 452.266667 392.533333 512c-8.533333 4.266667-12.8 4.266667-21.333333 0-4.266667-4.266667-8.533333-12.8-8.533333-17.066667v-128h42.666666v93.866667l98.133334-46.933333c4.266667-4.266667 12.8-4.266667 17.066666 0l98.133334 46.933333V362.666667h42.666666v128c0 8.533333-4.266667 12.8-8.533333 17.066666-4.266667 4.266667-8.533333 4.266667-12.8 4.266667z" /></svg>