<?xml version="1.0" standalone="no"?><!DOCTYPE svg PUBLIC "-//W3C//DTD SVG 1.1//EN" "http://www.w3.org/Graphics/SVG/1.1/DTD/svg11.dtd"><svg class="svg-icon" width="16" height="16" viewBox="0 0 1024 1024" version="1.1" xmlns="http://www.w3.org/2000/svg"><path d="M664.576 850.944H364.032c-17.408 0-30.72 20.48-16.384 38.912 3.072 4.096 7.68 6.144 12.288 6.144H660.48c17.408 0 30.72-20.48 16.384-38.912-3.072-3.584-7.68-6.144-12.288-6.144zM619.52 329.216L506.368 442.368 438.784 374.784c-12.288-12.288-32.768-12.288-45.056 0-12.288 12.288-12.288 32.768 0 45.056l90.624 90.112c12.288 12.288 32.768 12.288 45.056 0l135.68-135.68c12.288-12.288 12.288-32.768 0-45.056a32.768 32.768 0 0 0-45.568 0z" /><path d="M782.848 128H241.152C178.688 128 128 178.688 128 241.152v350.208c0 62.464 50.688 113.152 113.152 113.152H783.36c62.464 0 113.152-50.688 113.152-113.152V241.152c-0.512-62.464-51.2-113.152-113.664-113.152z m68.608 462.848c0 38.4-30.208 69.632-68.096 69.632H240.64c-37.376 0-68.096-31.232-68.096-69.632V241.152c0-38.4 30.208-69.632 68.096-69.632h542.72c37.376 0 68.096 31.232 68.096 69.632v349.696z" /></svg>