<?xml version="1.0" standalone="no"?><!DOCTYPE svg PUBLIC "-//W3C//DTD SVG 1.1//EN" "http://www.w3.org/Graphics/SVG/1.1/DTD/svg11.dtd"><svg fill="currentColor" class="svg-icon" width="16" height="16" viewBox="0 0 1024 1024" version="1.1" xmlns="http://www.w3.org/2000/svg"><path d="M847.36 734.08H523.52a32 32 0 0 1 0-64h323.84a60.16 60.16 0 0 0 60.16-60.16V239.36a60.16 60.16 0 0 0-60.16-59.84H199.36a59.84 59.84 0 0 0-59.84 59.84v370.56a60.16 60.16 0 0 0 59.84 60.16H265.6a32 32 0 0 1 0 64H199.36a124.16 124.16 0 0 1-123.84-124.16V239.36a123.84 123.84 0 0 1 123.84-123.84h648a124.16 124.16 0 0 1 124.16 123.84v370.56a124.16 124.16 0 0 1-124.16 124.16zM650.56 918.72h-254.4a32 32 0 0 1 0-64h254.4a32 32 0 0 1 0 64zM523.52 918.72a32 32 0 0 1-32-32V800a32 32 0 0 1 64 0v87.36a32 32 0 0 1-32 31.36zM468.48 640a32 32 0 0 1-22.72-9.6L391.04 576a32 32 0 0 1 45.44-45.44l54.72 54.72a32 32 0 0 1 0 45.12 32 32 0 0 1-22.72 9.6zM265.6 734.08a32 32 0 0 1-22.72-54.72l148.48-148.16a32 32 0 0 1 45.12 0 32 32 0 0 1 0 45.44L288 724.8a32 32 0 0 1-22.4 9.28zM468.48 640a32 32 0 0 1-22.72-54.72l165.12-165.12a32 32 0 0 1 45.44 45.12l-165.12 165.12a32 32 0 0 1-22.72 9.6zM666.88 480a69.44 69.44 0 1 1 48.96-118.4 69.44 69.44 0 0 1-48.96 118.4z m0-74.56a5.44 5.44 0 0 0-3.84 0 5.12 5.12 0 0 0 0 7.68 5.44 5.44 0 1 0 8.96-6.72 6.72 6.72 0 0 0-5.12-1.6z" /></svg>