<?xml version="1.0" standalone="no"?><!DOCTYPE svg PUBLIC "-//W3C//DTD SVG 1.1//EN" "http://www.w3.org/Graphics/SVG/1.1/DTD/svg11.dtd"><svg fill="currentColor" class="svg-icon" width="16" height="16" viewBox="0 0 1024 1024" version="1.1" xmlns="http://www.w3.org/2000/svg"><path d="M512 968H264A168.16 168.16 0 0 1 96 800V224A168.16 168.16 0 0 1 264 56h496A168.16 168.16 0 0 1 928 224v301.28a40 40 0 0 1-80 0V224a88.16 88.16 0 0 0-88-88h-496A88.16 88.16 0 0 0 176 224v576a88.16 88.16 0 0 0 88 88H512a40 40 0 0 1 0 80zM962.56 795.04L936.48 784a168.96 168.96 0 0 0-10.56-70.08l21.92-17.6a37.44 37.44 0 0 0 5.92-52.32l-18.88-23.68a37.44 37.44 0 0 0-52.32-5.92l-22.08 17.6a169.44 169.44 0 0 0-65.92-26.08l-4.16-27.84a37.44 37.44 0 0 0-42.4-32l-29.92 4.48a37.44 37.44 0 0 0-32 42.4l4.16 27.84a169.44 169.44 0 0 0-55.36 44.16L609.44 656a37.44 37.44 0 0 0-48 21.12l-11.04 28.16a37.44 37.44 0 0 0 21.12 48l26.24 10.24a168.96 168.96 0 0 0 10.24 70.56l-21.92 17.6a37.44 37.44 0 0 0-5.92 52.32l18.4 24a37.44 37.44 0 0 0 52.32 5.92l22.08-17.6a169.44 169.44 0 0 0 65.92 26.08l4.16 27.84a37.44 37.44 0 0 0 42.4 32L816 996.8a37.44 37.44 0 0 0 32-42.4l-4.16-27.84a169.44 169.44 0 0 0 55.36-44.16l26.4 10.4a37.44 37.44 0 0 0 48-21.12l11.04-28.16a37.44 37.44 0 0 0-22.08-48.48zM780.16 864a90.24 90.24 0 1 1 75.84-102.72A90.24 90.24 0 0 1 780.16 864zM256 240m40 0l432 0q40 0 40 40l0 0q0 40-40 40l-432 0q-40 0-40-40l0 0q0-40 40-40ZM256 440m40 0l432 0q40 0 40 40l0 0q0 40-40 40l-432 0q-40 0-40-40l0 0q0-40 40-40ZM256 640m40 0l176 0q40 0 40 40l0 0q0 40-40 40l-176 0q-40 0-40-40l0 0q0-40 40-40Z" /></svg>