<?xml version="1.0" standalone="no"?><!DOCTYPE svg PUBLIC "-//W3C//DTD SVG 1.1//EN" "http://www.w3.org/Graphics/SVG/1.1/DTD/svg11.dtd"><svg fill="currentColor" class="svg-icon" width="16" height="16" viewBox="0 0 1024 1024" version="1.1" xmlns="http://www.w3.org/2000/svg"><path d="M176.566857 200.118857m36.571429 0l244.662857 0q36.571429 0 36.571428 36.571429l0 0q0 36.571429-36.571428 36.571428l-244.662857 0q-36.571429 0-36.571429-36.571428l0 0q0-36.571429 36.571429-36.571429Z"  /><path d="M176.566857 397.824m36.571429 0l244.662857 0q36.571429 0 36.571428 36.571429l0 0q0 36.571429-36.571428 36.571428l-244.662857 0q-36.571429 0-36.571429-36.571428l0 0q0-36.571429 36.571429-36.571429Z"  /><path d="M176.566857 595.602286m36.571429 0l244.662857 0q36.571429 0 36.571428 36.571428l0 0q0 36.571429-36.571428 36.571429l-244.662857 0q-36.571429 0-36.571429-36.571429l0 0q0-36.571429 36.571429-36.571428Z"  /><path d="M713.289143 0c79.579429 0 142.628571 69.485714 147.894857 155.355429l0.365714 11.776v131.803428a35.328 35.328 0 0 1-69.997714 6.363429l-0.585143-6.363429V167.131429c0-50.980571-31.744-91.209143-69.997714-96.036572L713.289143 70.656H148.333714c-39.058286 0-73.142857 36.937143-77.312 86.454857l-0.365714 10.020572v659.163428c0 50.980571 31.670857 91.136 69.924571 95.963429l7.753143 0.512H430.811429a35.328 35.328 0 0 1 6.290285 70.070857l-6.290285 0.585143H148.333714c-79.652571 0-142.628571-69.485714-147.968-155.355429L0 826.294857V167.131429C0 79.872 59.538286 6.656 137.508571 0.365714L148.406857 0h564.955429z"  /><path d="M760.32 496.64a263.68 263.68 0 1 1 0 527.36 263.68 263.68 0 0 1 0-527.36z m0 58.514286a205.165714 205.165714 0 1 0 0 410.331428 205.165714 205.165714 0 0 0 0-410.331428z"  /><path d="M727.405714 665.161143a29.257143 29.257143 0 0 1 28.672 23.405714l0.585143 5.851429-0.073143 102.546285h69.705143a29.257143 29.257143 0 0 1 28.598857 23.405715l0.658286 5.851428a29.257143 29.257143 0 0 1-23.405714 28.672l-5.851429 0.658286H727.405714a29.257143 29.257143 0 0 1-28.672-23.405714l-0.585143-5.851429V694.418286c0-16.091429 13.092571-29.257143 29.257143-29.257143z"  /></svg>