<?xml version="1.0" standalone="no"?><!DOCTYPE svg PUBLIC "-//W3C//DTD SVG 1.1//EN" "http://www.w3.org/Graphics/SVG/1.1/DTD/svg11.dtd"><svg class="svg-icon" width="16" height="16" viewBox="0 0 1024 1024" version="1.1" xmlns="http://www.w3.org/2000/svg"><path d="M706.403656 773.268396v125.662658a39.435245 39.435245 0 0 1-39.846375 39.815732H614.217418a105.241518 105.241518 0 0 1-24.72651 37.305543 109.537951 109.537951 0 0 1-154.972879 0.284726 114.117832 114.117832 0 0 1-25.040602-37.590269h-52.051306a39.836161 39.836161 0 0 1-40.108119-39.815732v-125.662658a317.556763 317.556763 0 0 1-43.209467-36.761626 326.65524 326.65524 0 0 1-98.983921-234.756282c0-88.354561 35.251172-172.240323 98.983921-235.041009a337.182456 337.182456 0 0 1 237.7657-97.34068c89.849694 0 175.157811 34.794077 238.286634 97.34068 63.442916 62.805793 98.696642 146.683893 98.696642 235.041009a327.547724 327.547724 0 0 1-98.696642 234.756282 305.831909 305.831909 0 0 1-43.757213 36.761626zM511.874235 463.046849a89.275134 89.275134 0 0 1 21.60218-11.51929 120.508216 120.508216 0 0 1 45.515367-8.673302 117.104267 117.104267 0 0 1 45.198721 8.673302 122.700482 122.700482 0 0 1 38.958999 25.551322c9.108691 9.242755 9.108691 23.817428 0 33.655172-9.660269 8.698839-25.015066 8.698839-34.123758 0a73.090417 73.090417 0 0 0-22.757683-15.714855 78.082705 78.082705 0 0 0-27.272449-5.048467 77.177454 77.177454 0 0 0-27.32352 5.048467 69.798827 69.798827 0 0 0-22.727041 15.714855c-9.134227 8.698839-24.463488 8.698839-34.149293 0a70.077169 70.077169 0 0 0-22.72704-15.714855 74.49362 74.49362 0 0 0-27.036241-5.048467 75.983646 75.983646 0 0 0-27.299261 5.048467 69.298321 69.298321 0 0 0-22.47168 15.714855c-9.658992 8.698839-25.015066 8.698839-34.123758 0-9.370435-9.83136-9.370435-24.412416 0-33.655172a113.102776 113.102776 0 0 1 38.665335-25.551322 118.2802 118.2802 0 0 1 45.226811-8.673302 124.115176 124.115176 0 0 1 45.777111 8.673302c7.40544 2.537002 14.227383 6.756826 21.078691 11.51929z m23.859562-348.06973c0 12.89568-10.2144 23.247975-23.859562 23.247974-13.098691 0-23.886375-10.354848-23.886375-23.247974v-75.458882a24.088109 24.088109 0 0 1 23.886375-23.84807 23.7089 23.7089 0 0 1 23.859562 23.842963v75.458881z m193.40073 63.090519c-6.824496 11.4912-21.60218 15.714855-32.99379 8.956752-11.654631-6.135024-15.329261-20.736509-8.531577-32.255799l38.113757-65.627521c6.247382-11.4912 21.340436-15.118589 32.968253-8.414112 11.39161 6.472099 15.093053 20.762045 8.530301 32.826529l-38.086944 64.514151z m134.524926 150.903718a24.331978 24.331978 0 0 1-32.705232-8.983565 22.577655 22.577655 0 0 1 9.081879-31.97235l65.990132-37.848183a24.09194 24.09194 0 0 1 32.705232 8.412836 23.851901 23.851901 0 0 1-8.818857 32.516266l-66.253154 37.874996z m40.397953 196.648908c-13.124227 0-23.6208-10.951114-23.6208-24.413693a23.383316 23.383316 0 0 1 23.6208-23.299047h77.03956a23.416512 23.416512 0 0 1 23.6208 23.299047c0 13.462579-10.552752 24.413693-23.6208 24.413693h-77.03956z m-64.021306 189.860163a23.200733 23.200733 0 0 1-9.081879-32.541802 24.741831 24.741831 0 0 1 32.705232-8.414112l66.253154 38.134186c11.39161 6.756826 15.38161 20.787581 8.818857 31.972349a24.06768 24.06768 0 0 1-32.705232 9.009101l-65.990132-38.154615z m-679.975173-40.950807a25.099335 25.099335 0 0 1 32.995066 8.414112 23.860839 23.860839 0 0 1-8.820134 32.541802l-66.535326 38.159723c-11.39161 6.704477-25.880736 2.225462-32.706509-9.009101-6.535939-11.184768-2.545939-25.215524 9.370435-31.97235l65.700299-38.134186z m-40.369863-196.627203c13.361712 0 24.149396 10.381661 24.149396 23.299047a24.279629 24.279629 0 0 1-24.148119 24.413693H43.174993a24.06002 24.06002 0 0 1-23.886375-24.413693 23.459924 23.459924 0 0 1 23.886375-23.299047h76.516071z m64.544795-189.892083c11.36352 6.73129 15.356074 21.305962 8.820134 31.972349a24.186423 24.186423 0 0 1-32.995066 8.983565l-66.277412-37.869888a23.980858 23.980858 0 0 1-8.793322-32.516266 24.468596 24.468596 0 0 1 32.9657-8.412836l66.277412 37.848183z m152.138383-133.24685a23.480352 23.480352 0 0 1-8.241744 32.255799 24.344746 24.344746 0 0 1-33.258087-8.956752l-38.401037-65.078497a23.582496 23.582496 0 0 1 9.107414-32.257076c11.36352-6.419751 26.143757-3.080918 32.417953 8.414112l38.375501 65.627521z m308.580859 563.543778l1.705805-1.138905a265.398206 265.398206 0 0 0 46.621076-36.73609 250.089374 250.089374 0 0 0 0-357.338022 258.961857 258.961857 0 0 0-362.575455 0c-48.349863 47.369281-75.386104 110.776447-75.386104 178.656243a250.508164 250.508164 0 0 0 75.386104 178.681779 265.620369 265.620369 0 0 0 46.644058 36.73609l1.418525 1.138905a262.97867 262.97867 0 0 0 266.188545 0zM397.822797 814.509037v45.148925h44.649696c22.179293 0 40.396676 17.682403 40.396676 39.273092v1.138906c0 7.27776 2.80896 15.118589 8.530301 20.192592v0.545194a31.067098 31.067098 0 0 0 20.474765 7.870195c7.926375 0 15.039427-3.365645 21.025066-8.414112a27.180519 27.180519 0 0 0 8.268557-20.192593v-1.138905c0-21.590688 18.452314-39.273092 40.346881-39.273092h44.675232V814.509037a346.759733 346.759733 0 0 1-228.364621 0z" /></svg>