<?xml version="1.0" standalone="no"?><!DOCTYPE svg PUBLIC "-//W3C//DTD SVG 1.1//EN" "http://www.w3.org/Graphics/SVG/1.1/DTD/svg11.dtd"><svg t="1708415827928" class="svg-icon" viewBox="0 0 1024 1024" version="1.1" xmlns="http://www.w3.org/2000/svg" p-id="7403" xmlns:xlink="http://www.w3.org/1999/xlink" width="16" height="16"><path d="M599.765333 51.562667 367.893333 51.562667c-82.048 0-148.778667 64.170667-148.778667 143.04l0 609.92c0 78.869333 66.752 143.04 148.778667 143.04l231.872 0c82.048 0 148.778667-64.170667 148.778667-143.04L748.544 194.581333C748.565333 115.712 681.813333 51.562667 599.765333 51.562667zM707.84 804.522667c0 56.426667-48.490667 102.314667-108.053333 102.314667L367.893333 906.837333c-59.584 0-108.053333-45.888-108.053333-102.314667L259.84 766.933333l448 0L707.84 804.522667zM707.84 732.8l-448 0L259.84 247.829333l448 0L707.84 732.8zM707.84 213.696l-448 0L259.84 194.581333c0-56.405333 48.469333-102.314667 108.053333-102.314667l231.872 0c59.584 0 108.053333 45.888 108.053333 102.314667L707.818667 213.696z" p-id="7404"></path><path d="M586.56 133.226667 586.56 133.12 382.506667 133.12l0 0.192c-0.32-0.021333-0.576-0.192-0.896-0.192-11.776 0-21.333333 9.557333-21.333333 21.333333 0 11.776 9.557333 21.333333 21.333333 21.333333 0.32 0 0.576-0.170667 0.896-0.192L382.506667 175.786667l204.032 0L586.538667 175.701333c11.541333-0.277333 20.842667-9.621333 20.842667-21.226667C607.381333 142.848 598.101333 133.504 586.56 133.226667z" p-id="7405"></path><path d="M483.84 888c23.530667 0 42.666667-19.136 42.666667-42.666667s-19.136-42.666667-42.666667-42.666667-42.666667 19.136-42.666667 42.666667S460.309333 888 483.84 888zM483.84 817.514667c15.338667 0 27.818667 12.48 27.818667 27.818667s-12.48 27.818667-27.818667 27.818667-27.818667-12.48-27.818667-27.818667S468.501333 817.514667 483.84 817.514667z" p-id="7406"></path></svg>